PathFileType	4	(X/Y/Z)	/Users/niels/Desktop/University/Third Semester/Perception and Action/Exam/Gymnastics Motion Tracking/Code for Gym Tracking/Analyzed Data/Webcam_Backflip/id12_2_trajectory_Sports2D/id12_2_trajectory_Sports2D_px_person00.trc
DataRate	CameraRate	NumFrames	NumMarkers	Units	OrigDataRate	OrigDataStartFrame	OrigNumFrames
29.714285714285715	29.714285714285715	11	22	m	29.714285714285715	91	105
Frame#	Time	Hip			RHip			RKnee			RAnkle			RBigToe			RSmallToe			RHeel			LHip			LKnee			LAnkle			LBigToe			LSmallToe			LHeel			Neck			Head			Nose			RShoulder			RElbow			RWrist			LShoulder			LElbow			LWrist		
		X1	Y1	Z1	X2	Y2	Z2	X3	Y3	Z3	X4	Y4	Z4	X5	Y5	Z5	X6	Y6	Z6	X7	Y7	Z7	X8	Y8	Z8	X9	Y9	Z9	X10	Y10	Z10	X11	Y11	Z11	X12	Y12	Z12	X13	Y13	Z13	X14	Y14	Z14	X15	Y15	Z15	X16	Y16	Z16	X17	Y17	Z17	X18	Y18	Z18	X19	Y19	Z19	X20	Y20	Z20	X21	Y21	Z21	X22	Y22	Z22
91	3.0625	1.0625087975009988	-0.5250420061757021	0.0	1.0612340965664668	-0.5302475633276311	0.0	1.103570732016747	-0.7497105132309114	0.0	1.0303481388164588	-0.9503287023244478	0.0	1.1069367307602043	-1.0054867710833766	0.0	1.0864839313361698	-1.0129033206651332	0.0	1.0068644454504936	-0.9757938107828023	0.0	1.0624402980679457	-0.5275620701824846	0.0	1.110033976440268	-0.7290103961872174	0.0	1.0525805624113689	-0.9250794529117718	0.0	1.1485481607236034	-0.9667701822605363	0.0	1.1313371616790933	-0.963327245600875	0.0	1.0231018017478146	-0.9505121402206854	0.0	1.0594905646927095	-0.24062458238644585	0.0	1.0930619967909803	-0.12693827670377839	0.0	1.1187611030681541	-0.18730121743661904	0.0	1.0603979653840039	-0.2586594347442668	0.0	1.1715526301796781	-0.2300847585359189	0.0	1.2358800620355246	-0.17317374831277046	0.0	1.0220650183222482	-0.2732573295258898	0.0	1.1072581273380333	-0.2826563740490293	0.0	1.1873290381270385	-0.22554109880017842	0.0
92	3.096153846153846	1.069984227751062	-0.4885953199599096	0.0	1.0700198776260708	-0.4926948093670398	0.0	1.101858418460058	-0.7208250666000362	0.0	1.0360677960076354	-0.9276850992938275	0.0	1.1006481273488857	-0.9883420919024392	0.0	1.0815383162503027	-0.9948438306943564	0.0	1.0112611983720738	-0.9536369876089753	0.0	1.0680837915351975	-0.4904443795755813	0.0	1.10960674093249	-0.6971997351633312	0.0	1.0566474361786897	-0.8995721224495543	0.0	1.1498315413294677	-0.9462705459017031	0.0	1.1345001161194246	-0.9405978198183295	0.0	1.0288460438839488	-0.9258221908998041	0.0	1.05775336510669	-0.20417049518776828	0.0	1.093181504352791	-0.1009664434505842	0.0	1.1159613117786749	-0.15414049090628137	0.0	1.0563417449246004	-0.21505700638228817	0.0	1.167353682366532	-0.1547204871681099	0.0	1.2126841158660138	-0.09352500769334322	0.0	1.0231755141546008	-0.2385060442255167	0.0	1.0938040146140608	-0.24022373916806883	0.0	1.1682761437344453	-0.18201464102554984	0.0
93	3.129807692307692	1.0736174850722964	-0.4505118484033933	0.0	1.0747023344547078	-0.4521567916068106	0.0	1.109398101859102	-0.6842689965978787	0.0	1.048146229421489	-0.8949641860368105	0.0	1.097599999102552	-0.9608209501340269	0.0	1.0801302419258376	-0.9658129507152382	0.0	1.0187531922351718	-0.9212133278871285	0.0	1.070952246161576	-0.4509914543570815	0.0	1.1162923333333419	-0.6620049157230603	0.0	1.0574369387534404	-0.8671230091804215	0.0	1.1488818256880435	-0.9205237127586569	0.0	1.1351794091937701	-0.9121079129931458	0.0	1.0314181999563834	-0.8925212037424777	0.0	1.0575526489044067	-0.1673724986940709	0.0	1.0980354511893187	-0.07578185268918161	0.0	1.1163323548951083	-0.1224134568430749	0.0	1.0503600462828429	-0.17130739193013528	0.0	1.1591720292531553	-0.09111279399134493	0.0	1.1887773455649695	-0.03682215744561872	0.0	1.0302587115650432	-0.20381068137859454	0.0	1.0869014518122497	-0.20961834804485918	0.0	1.1530863252310273	-0.16349027002365454	0.0
94	3.1634615384615383	1.0727906885787284	-0.4150343315257917	0.0	1.0747675151421878	-0.4135017286706368	0.0	1.1275730535053319	-0.6398708939490166	0.0	1.0710492971912884	-0.8506817396199295	0.0	1.1037674443892713	-0.920546069758939	0.0	1.088260432937474	-0.923583456620235	0.0	1.0330486196858704	-0.8773073644661903	0.0	1.0701358365929654	-0.41446825090993705	0.0	1.1284316965698804	-0.6272537486124322	0.0	1.0528781703278023	-0.8301070074849864	0.0	1.141674651812572	-0.8916244297717644	0.0	1.1293506232780584	-0.8808780801854655	0.0	1.028449356391872	-0.8529384811497608	0.0	1.0581054672840826	-0.13475279756837744	0.0	1.1055020359745023	-0.05481684305648842	0.0	1.118621727500835	-0.09573714821202846	0.0	1.043350025744593	-0.13261719532185082	0.0	1.151674749107585	-0.04551450457231049	0.0	1.1737572301955574	-0.0018356637120982735	0.0	1.0413544875132812	-0.17301269853580004	0.0	1.092573494627829	-0.18561754869852914	0.0	1.149456083852293	-0.1591104183266504	0.0
95	3.1971153846153846	1.067868032591887	-0.38523438807533805	0.0	1.071260902259319	-0.3805663649508598	0.0	1.1537876354555945	-0.5868232849004206	0.0	1.1098128960796714	-0.7936983259473528	0.0	1.1270324537716072	-0.8644958234006154	0.0	1.1141361527469913	-0.8657017500730259	0.0	1.0602896212810144	-0.8214964869575023	0.0	1.065199716509648	-0.38523716543769665	0.0	1.14080050162297	-0.5968260520003448	0.0	1.0425606816941597	-0.7927194747854468	0.0	1.1238795595613662	-0.863271062148757	0.0	1.1127833404663714	-0.8512986749741911	0.0	1.0194803514387254	-0.8120194027942389	0.0	1.0586724491420305	-0.10938331943138664	0.0	1.1131533260579145	-0.04061724436529855	0.0	1.1216235738833809	-0.07618475308470848	0.0	1.036846759973841	-0.10248592987067762	0.0	1.147862011749095	-0.02008327205236497	0.0	1.1725221598791202	0.016193663292205597	0.0	1.0522065235336042	-0.14863667731520225	0.0	1.11046760744833	-0.16094627258148939	0.0	1.1596386298387418	-0.15344312497210919	0.0
96	3.230769230769231	1.060042254240849	-0.3628242499045137	0.0	1.0661285213300946	-0.3553404833874741	0.0	1.1820265713208642	-0.5252194542162425	0.0	1.1663220744134808	-0.7237052834274048	0.0	1.172653756103269	-0.7898359126337594	0.0	1.1633011410333887	-0.7899635258391313	0.0	1.105526646629899	-0.7539477736924135	0.0	1.0564080593660132	-0.36573078369552575	0.0	1.147616481306182	-0.5740062104041657	0.0	1.0282918500384208	-0.7601664145350759	0.0	1.0954490947357869	-0.8395754047579453	0.0	1.0854399374182426	-0.8275437159491812	0.0	1.0062427767208677	-0.7759704410039324	0.0	1.0588738898270786	-0.0924036522550048	0.0	1.1196159278795026	-0.033779234940722734	0.0	1.124841773861805	-0.06432411325625526	0.0	1.0325408103080276	-0.0822043102311548	0.0	1.148248927458561	-0.013512701524634683	0.0	1.1849435011437426	0.021151185465897438	0.0	1.0577899193809654	-0.13144915327599194	0.0	1.1343863727175858	-0.13540290780259134	0.0	1.1814102076090518	-0.13679539659002	0.0
97	3.2644230769230766	1.0510217952870853	-0.3486958206825034	0.0	1.0609304586250043	-0.33841345651792554	0.0	1.2049157122343874	-0.4581077382939631	0.0	1.2357043383423563	-0.6422732684898886	0.0	1.2374056145996681	-0.6968804455915691	0.0	1.23238559658117	-0.6969648396908897	0.0	1.1676005914874537	-0.6755832297781332	0.0	1.0456377580974199	-0.3564419476077418	0.0	1.1463520535332883	-0.5607202338368759	0.0	1.013344727933801	-0.7373294543231156	0.0	1.0633166241587961	-0.8238870090654999	0.0	1.0542124197066938	-0.8124300433744188	0.0	0.9918421504011644	-0.7504260528175882	0.0	1.0591000207749905	-0.08334355614363463	0.0	1.125328148592267	-0.03239452306957504	0.0	1.1287232080731604	-0.05954166145942201	0.0	1.0317094064846157	-0.07141614572728054	0.0	1.1511143563111474	-0.022770084833995553	0.0	1.2066703334391735	0.014393880559819655	0.0	1.055996213902746	-0.12056767576370175	0.0	1.1565091178671736	-0.11611263598803506	0.0	1.2093100862370965	-0.11070230297012344	0.0
98	3.298076923076923	1.042661760220087	-0.34350902361658686	0.0	1.0562687409520688	-0.32998173818286475	0.0	1.2174773300070263	-0.39186326773904073	0.0	1.3054405896136914	-0.5534869046299908	0.0	1.3088858214831078	-0.5909601656183989	0.0	1.3084372196083085	-0.5919114294870292	0.0	1.2382961450508079	-0.5880945402015149	0.0	1.0362203949182274	-0.35672819063744987	0.0	1.1385972757939966	-0.5573412971674372	0.0	1.0011365009768958	-0.7276242754577148	0.0	1.0368992380976447	-0.8185086031218907	0.0	1.0286096033047325	-0.8076085729082629	0.0	0.9795792091803734	-0.7392073115674516	0.0	1.0602283267284607	-0.08129813063581291	0.0	1.1314203717751876	-0.0332049573494979	0.0	1.1339245243299088	-0.06073075406286002	0.0	1.0344445843978212	-0.06949593040408066	0.0	1.1537070715301345	-0.04501615069576245	0.0	1.2307971830576483	-0.003923698414494078	0.0	1.0496111726757222	-0.11486436342635464	0.0	1.1717552138357412	-0.10945464444450823	0.0	1.2365028258564608	-0.08600951618598403	0.0
99	3.331730769230769	1.0364952759135968	-0.34746697753047684	0.0	1.052218270667158	-0.33024148164508427	0.0	1.2197976254334262	-0.3343916315935388	0.0	1.3564130460982071	-0.46356913566116703	0.0	1.3710521008341163	-0.4809276227259322	0.0	1.374581624634592	-0.48334268045889744	0.0	1.3072089585998556	-0.4936190489770787	0.0	1.0309006307445534	-0.3653187531397814	0.0	1.1275435205360889	-0.5630314407303353	0.0	0.9943151956041925	-0.7323084056747841	0.0	1.02248240617832	-0.8245826890598006	0.0	1.01498997891157	-0.8138862239597467	0.0	0.9722142515325107	-0.7438017027740369	0.0	1.0627739281644726	-0.08594908862742537	0.0	1.1380909441769245	-0.03414790057884133	0.0	1.1402527474526776	-0.06709579853551464	0.0	1.0396091195084733	-0.07622337163418082	0.0	1.1535929364843789	-0.0777962947776015	0.0	1.2502340224299369	-0.03287138847354906	0.0	1.0438311762690953	-0.11465728770246096	0.0	1.1787461334483258	-0.11678645862963867	0.0	1.2570822162792925	-0.07349274006640215	0.0
100	3.3653846153846154	1.0334705258944081	-0.35964843057686824	0.0	1.0486843110367334	-0.33926627096788803	0.0	1.2143490841190283	-0.29283195684530305	0.0	1.364109406660385	-0.38032713064434637	0.0	1.4089327721629659	-0.3769396558098998	0.0	1.4146560028138007	-0.3810423013570589	0.0	1.3661078930031216	-0.3956185265294545	0.0	1.0306350823457595	-0.38013091669586574	0.0	1.1158815492638416	-0.5761970572463448	0.0	0.994434757347678	-0.7503663029359668	0.0	1.0223898382902255	-0.8415847766163611	0.0	1.0154886607469116	-0.8307950499486618	0.0	0.9717617763020984	-0.7632974444440206	0.0	1.0665208171712428	-0.09722437423503022	0.0	1.1443134904176213	-0.03560835807389819	0.0	1.1465616173661677	-0.07803381364058831	0.0	1.045717815606892	-0.0911147669618272	0.0	1.1495838336387378	-0.11783065305001826	0.0	1.2600507749552639	-0.06981794123139501	0.0	1.0421300858024114	-0.12148812639376126	0.0	1.1782847410924833	-0.13680336139335653	0.0	1.2675817150078597	-0.0764501807933456	0.0
101	3.3990384615384612	1.0339830518167616	-0.37801404075816436	0.0	1.0454075022634888	-0.35672047436638793	0.0	1.201909691177573	-0.27137098512489355	0.0	1.3017854861018583	-0.3120410476318246	0.0	1.4097894528551207	-0.28920879570226143	0.0	1.4145442975786013	-0.29478457647320444	0.0	1.4100423074188777	-0.29976756442636043	0.0	1.0352426314709218	-0.3984453495536014	0.0	1.1056355808421454	-0.5949728475489771	0.0	1.0019382430294719	-0.779083602189796	0.0	1.036363155593253	-0.8672161125867354	0.0	1.0295383598401178	-0.856291183880045	0.0	0.9793564226329842	-0.7947477510726927	0.0	1.0708708622629808	-0.11443138404012884	0.0	1.148539293047754	-0.03966520123326398	0.0	1.151449200665325	-0.09265498721794942	0.0	1.0517155711785922	-0.11273913397513353	0.0	1.1422678975610532	-0.16102270462986581	0.0	1.2588688121729956	-0.1109203920295092	0.0	1.0446859388966103	-0.13637318199008777	0.0	1.1719177219973806	-0.1685117609103906	0.0	1.2670365888884967	-0.09200812174661695	0.0
